<?xml version="1.0" encoding="UTF-8"?>
<svg id="Layer_1" data-name="Layer 1" xmlns="http://www.w3.org/2000/svg" version="1.1" viewBox="0 0 360 360">
  <defs>
    <style>
      .cls-1 {
        fill: #10202a;
      }

      .cls-1, .cls-2, .cls-3, .cls-4, .cls-5 {
        stroke-width: 0px;
      }

      .cls-2 {
        fill: #b6bcbf;
      }

      .cls-3 {
        fill: #183b65;
      }

      .cls-4 {
        fill: #55636c;
      }

      .cls-5 {
        fill: #231f20;
      }
    </style>
  </defs>
  <g>
    <path class="cls-3" d="M76.9,131.3c-.8,0-1.7,0-2.5,0-22.6,0-38.8,9.5-39.5,15.4-.4,2.8,4.4,4.3,4.7,4.5,0,0,0,0-.2,0-2.9,0-7.9-1.4-7.9-5.3.3-9.5,20.5-16.5,40.6-16.5s1.9,0,2.9,0c9.3.3,18.3,2.6,21.7,4.5.6.3.3.6-.2.4-.7-.4-9-2.8-19.6-3.1ZM58.2,142.6c2.1-2.6,3.7-4.3,5-5.5,1.3-1.2,2.3-2,3.1-2,1.6,0,3.4,1.2,3.8,3.1-.3-.4-.7-.5-1.1-.5-1,0-2.9,1.6-5.4,4.5-7.5,8.9-19.8,27.7-19.4,30.6,1,0,2-.4,3.3-1.3,0,.8-3.1,3-4.3,3.1-.7,0-1.5-.4-1.6-1.7-.3-4.2,9.1-20.6,16.6-30.2Z"/>
    <path class="cls-3" d="M75.5,149.3c-7.9,0-17.1,14.8-14.7,15.8,2.5,1,8.7-6,11.7-10.5-.2-.4-.7-1.7-.5-2.2.1-.4,1.4-1.8,2-1.8.4,0,.9.3,1,.4.8,1.4,1.9,2.4,3.6,2.2,2.9-.3,4.6-2,5-1.9-.2.6-2,2.1-4.1,2.8-1,.3-1.9.4-2.6.4s-1.1,0-1.3-.2c-1.2,5.8-10.3,12.2-14.9,11.9-2-.1-3.3-1.8-3.3-3.5,0-7.2,9.6-14.3,16.5-14.3s2.4.5,2.7.7c.2.1,0,.1,0,.1-.4,0-.8-.1-1.1-.1Z"/>
    <path class="cls-3" d="M93.6,163.7c0-2.5,4.8-9.8,7.1-11.9-8,5.5-12.6,13.1-13.8,13.1s-2-1.4-2-2.3c0-1.7,3.4-8,6.3-10.7-4.4,2.7-8.5,6.8-11.7,10.4-.7.8-1.2,1.4-1.5,1.8-1.2,1.4-1.4,2.3-.8,2.6-1.3.3-2.5-1.1-2.8-2.3s0-1.5,1.2-3.5c1.9-3.6,4.5-7.6,6.9-10.4.6-.7,1.2-1.4,1.7-1.8.2-.2.4-.2.6-.2,1.1,0,2.8,1.7,2.8,2.8s-.2,0-.5,0c-.3,0-.9.4-1.5,1.1-1.9,2.2-5.8,7.9-6.8,9.6,2.8-3.7,12.3-12.3,14.1-12.7,0,0,.2,0,.3,0,.9,0,2.3,2.2,1.9,2.6-2.2,2.4-6.2,8.7-6.2,10.2,4.1-5.2,12.5-13.3,14.3-13.3s2.4,2.4,1.8,2.9c-1.1.9-7.9,10.4-7.9,12.3,2.9-.7,9.3-6.8,12.1-9.5.3-.2.5.1.4.3-3.8,4.2-11.1,11.5-13.6,11.5s-2.3-1.7-2.3-2.5Z"/>
  </g>
  <path class="cls-3" d="M184.8,165c14.4-2,17.7-4.6,18.4-12.3.2-2.9-5-3.9-8.2-4.1-.6,0-1.1,0-1.7,0-2.6,0-5.3.4-8.1,1.1-2.5,2.9-8.9,9.9-8.9,11.4s.2.2.4.2c.7,0,2.4-.6,2.9-.8-.8.8-2.9,2.2-3.8,2.2s-1.4-.4-1.4-1.5c0-3.6,11.5-19.6,19.1-25,.8-.5,1.4-.7,1.8-.7,2.5.2,4,2.9,3.3,2.3-.5-.3-1.2,0-2,.5-3.3,2.4-6.3,5.7-9.4,9.2,7.3-2.4,18.8-8,19.5-11.5.6-3.2-5.8-4.5-8.2-4.6-9.7-.6-24.1,7-24.3,11.4,0,.9.2,1.9,1.5,2.2,0,0-.4.2-1,.2-2.1,0-3.4-1.3-3.2-3.5.6-4.8,10.4-11.8,23.8-11.8s1.6,0,2.4,0c4.7.3,10.9,2.5,10.6,7.6-.4,6.1-11,9.3-14.1,10,.2,0,.8,0,1.5,0,3.8.3,10.2,2,10,6.6-.4,11.6-21.5,16.2-28.2,14.5,0,0-6.7-1.4-5-6.1,0,0,1.9,3.9,12.2,2.4Z"/>
  <path class="cls-3" d="M218.6,157.5c-1.3,1.3-9.9,8.7-11.7,8.7s-.3,0-.4-.1c-.8-.4-1.9-2.1-1.9-2.9,0-4.8,10.1-14.6,18.1-14.6s3.9.7,3.9,2.8-.4,1.5-.8,2.1c0,0-.2,0-.1,0,.2-.4.5-.9.5-1.6,0-1.3-.8-2-2.1-1.9-2.5.1-5.8,2-8.6,4.4-4.2,3.6-7.5,9.1-7.1,9.3,0,0,.2,0,.3,0,1.4-.5,7.6-4.9,9.9-6.8.8-.7,3.6-3.5,4.7-4.1.9-.4,2.4,2,2.2,2.5-.2-.4-4.2,4.3-5.5,7.2-.3.6-.4,1.1-.4,1.5,2.8-.8,9-6.8,11.8-9.3.2-.2.4.1.3.3-3.8,4.2-11,11.5-13.6,11.5s-.4,0-.7-.3c-.6-.4-1.4-1.3-1.4-2.1s.2-1,.4-1.6c.5-1.6,1.7-3.6,2.5-4.7Z"/>
  <path class="cls-3" d="M243.2,157.7c-1.5,1.9-2.7,2.1-2.7,2.1-.8,0-2.1-1.5-2.1-2.1,0-1.2,1.4-3.8,2.5-5.1-4,2.4-6.1,4.1-9.1,7.4-2.2,2.4-4.9,6.3-3.9,6.7-1.3.3-2.3-1.1-2.6-2.3,0-.4.1-1.2.7-2.2,1.1-2.5,3.1-5.5,4.8-8,1.5-2.2,3.4-4.5,4.5-5.4.3-.2.4-.2.6-.2,1.1,0,2.7,1.7,2.7,2.8s-.1,0-.5,0c-.7,0-2.2,1.7-3.5,3.4-1.2,1.6-2.7,3.6-3.6,5.3,2.3-3,6.7-6.7,10.5-9.4,1.7-1.2,3-2,3.9-2.1.5,0,2.3,1.8,2,2.2-1,1-4.6,4.2-6.1,7.6"/>
  <path class="cls-3" d="M254.6,147.7c.3-.2.4-.2.6-.2,1.1,0,2.7,1.8,2.7,3s-.1,0-.5,0c-.7,0-2.2,1.8-3.5,3.6-1.2,1.7-2.7,3.9-3.6,5.6,2.3-3.2,6.7-7.1,10.5-10,1.7-1.3,3-2.1,3.9-2.2.5,0,2.3,2,2,2.3-1,1.1-4.6,4.5-6.1,8.1,2.1-.2,5.1-2.3,7.9-4.9,0,0,.3,0,.4,0-.8,1.1-6.1,6.3-9.1,6.3s-2.1-1.6-2.1-2.2c0-1.3,1.4-4,2.5-5.4-4,2.5-6.1,4.4-9.1,7.9-2.2,2.6-4.9,6.7-3.9,7.1-1.3.3-2.3-1.1-2.6-2.4,0-.4.1-1.3.7-2.4,1.1-2.7,3.1-5.9,4.8-8.5,1.5-2.4,3.4-4.8,4.5-5.7Z"/>
  <path class="cls-3" d="M274.9,157.5c-1.3,1.3-9.9,8.7-11.7,8.7s-.3,0-.4-.1c-.8-.4-1.9-2.1-1.9-2.9,0-4.8,10-14.6,18.1-14.6s3.9.7,3.9,2.8-.4,1.5-.8,2.1c0,0-.2,0-.1,0,.2-.4.5-.9.5-1.6,0-1.3-.8-2-2.2-1.9-2.5.1-5.7,2-8.6,4.4-4.2,3.6-7.5,9.1-7.1,9.3,0,0,.2,0,.3,0,1.4-.5,7.6-4.9,9.9-6.8.8-.7,3.6-3.5,4.7-4.1.9-.4,2.4,2,2.2,2.5-.2-.4-4.2,4.3-5.5,7.2-.3.6-.4,1.1-.4,1.5,2.8-.8,9-6.8,11.8-9.3.2-.2.4.1.3.3-3.8,4.2-11,11.5-13.6,11.5s-.4,0-.7-.3c-.6-.4-1.4-1.3-1.4-2.1s.2-1,.4-1.6c.5-1.6,1.7-3.6,2.5-4.7Z"/>
  <path class="cls-3" d="M296.5,163.8c2.8-.7,9-6.8,11.8-9.4.3-.2.5.1.4.3-3.8,4.2-11,11.4-13.6,11.4s-.9-.4-1.4-.9c-.5-.6-.8-1.2-.8-1.7,0-2.5,5.1-9.8,7.4-11.9-3.6,1.6-10,6.9-13.3,10.4-.6.6-1.1,1.2-1.6,1.8-1.2,1.4-1.5,2.6-.8,2.9-1.3.3-2.4-1.1-2.7-2.4,0-.3.1-1.5,1.2-3.5,1.1-2.1,2.7-4.7,4.2-6.7,1.6-2.2,3.5-4.6,4.7-5.4.2-.2.4-.2.6-.2,1.1,0,2.8,1.7,2.8,2.8s-.2,0-.5,0c-.6,0-2.2,1.8-3.5,3.5-2.1,2.7-4.3,6-5,7.2.5-.7,1.3-1.6,2.2-2.5,4.9-4.8,12.6-10.8,14.1-10.8s2.5,2.4,1.9,2.9c-1.1.9-7.9,10.1-8,12.2Z"/>
  <path class="cls-3" d="M321.6,134.5c.7-.5,1.2-.9,1.6-.9,2.5-.1,4.2,2.4,3.4,1.9-1.4-.7-4,2.9-5.9,5.4,7.1-.4,16.3,0,22.6,1.3.4,0,.5.2,0,.1-8.7-.7-16.7-.7-24,.4-1.6,2-3.1,4.2-4.8,6.8-3.8,5.8-7.1,11.4-8.2,14.2,1.9.2,9.2-6.9,11.8-9.3.3-.2.4.1.3.3-2.2,2.5-9.8,10.4-12.4,11.4-.6.2-1,0-1.4-.2-.4-.2-1.3-1.1-1.6-1.8,0,0-.1-.2-.1-.7,0-1.3,2-5.6,7.4-14,1.2-1.8,2.5-3.7,4.1-5.9-4.2.8-6.8,2.9-5.6,3.6-.7,0-2.2-.8-2.3-2.2-.2-2,4.7-3.2,9.6-3.8,3.4-4.5,4.7-5.9,5.7-6.8Z"/>
  <path class="cls-3" d="M316.3,163.4c0,.5.4.8,1.3.8,3.2,0,11.2-6.1,15.7-9.8.1,0,.4.1.3.3-3.3,3.1-12,11.5-17.9,11.5s-3.1-1.6-3.1-2.8.3-1.9.6-2.9c1.1-2.5,3.3-5.3,6.1-7.6,3.6-3,7.5-4.4,9.4-4.4s2.7,1,2.7,2.2c0,2.7-8.4,9-13.3,9.2-.8.9-1.6,2.3-1.8,3.5ZM318.6,159.1c3.8-.4,11.1-7.5,11.4-9.2-4.9,1.6-9.9,6.9-11.4,9.2Z"/>
  <g>
    <path class="cls-5" d="M137.6,204.9l-4.3,1.5s6.6,18-1.8,24.6c0,0,7.7-2.7,13.3-11.5,5.6-8.8,13.5-5,13.5-5l-20.7-9.7Z"/>
    <path class="cls-4" d="M137.9,205.7l-3.3,1.7s7.1,15.5-.7,21.7c0,0,5.4-2.7,10.5-10.9,5.2-8.2,9.8-4.7,9.8-4.7l-16.3-7.8Z"/>
    <path class="cls-1" d="M168.8,125.4s4.2,14.8-24.2,24c0,0-11.9,7.8-3.6,28.5l11.4-3.8s-6.4,10.2,1.1,17.5c7.5,7.3,18.3,3.5,18.3,3.5,0,0,7.8-.5,0-7.8-7.8-7.3,3.5-5.9,3.5-5.9,0,0,10.4.2,12.4,6.2,2.9,8.7,10,28,2.5,30.2-7.5,2.2-10.3,0-10.3,0,0,0,1.4-6.5-1.7-7,0,0-10.6,7.5-25,2.7-14.4-4.8-30.6-13.6-31.7-41.4l-6.7-13.5s5.3,5.7,12.5-1.9c0,0,3.1-8.1,10-11s19.7-2.2,25-17.8l-1.9,8.9s8.6-3.5,8.3-11.3Z"/>
    <path class="cls-1" d="M131.6,231s5.5-4.3,4.3-12.3c0,0,.9,8.3,6,4.8,0,0-7.2,7.5-10.3,7.5Z"/>
    <path class="cls-2" d="M168.7,126.5s2.7,11.9-23,22.8c0,0-12.3,9.2-4.2,29.9l7-1.8s-3.4,7.2,3.9,14.5c7.3,7.3,20.2,5.1,20.2,5.1,0,0,9.3-3.3,1.5-9.6-8.1-6.6,1.4-6,1.4-6,0,0,10.1.2,12,6.2,2.8,8.7,9.6,26.8,2.3,28.9s-8.3-.3-8.3-.3c0,0,.3-6.5-2.7-7,0,0-11.3,8.1-25.3,3.2-14-4.8-29-12.6-30-40.4l-7.4-12.2s6.3,5.7,13.3-1.9c0,0,2.7-9.4,9.5-12.4,6.7-3,16.4-1.6,22.6-14.3l-.2,5.4s7.8-3,7.7-10.2Z"/>
    <path class="cls-1" d="M171.2,200.5s-.9.2-.4.9c.5.7,9.8,2.2,3.9,10.4,0,0-.3,1,.7.5,5.9-8.9-4.3-11.8-4.3-11.8Z"/>
    <path class="cls-5" d="M154.3,191.6s-11.5-4.9-9.3,7.5c2.1,12.5,4.5,5.8,4.5,5.8,0,0,4.6-9.5,11.7-7.4,0,0,4.3.5-6.9-5.9Z"/>
    <path class="cls-1" d="M193.1,215.2s-1.8-3.5-5.4.7c-3.6,4.2,0,2.4,0,2.4,0,0,3.8.1,5.4-3.1Z"/>
    <path class="cls-1" d="M193.5,208.9c-.5-4.9-6.2-22.2-6.2-22.2-.9-1.7-2.7-3.3-4.2-3.8-12.8-4.1-14-.2-14-.2,0,0-.5,2.6,12.5,2.5,0,0,9.1,12.5,9.9,29.8,0,0,1.7,1.3,1.9-1.3.2-1.4,0-4.1,0-4.9Z"/>
    <path class="cls-1" d="M129.2,157.3s-4.7,4.4-5.5,7-.4,8.9-.4,8.9l-7.8-13.6s7.6,5.3,13.7-2.2Z"/>
    <path class="cls-1" d="M145.9,183.1s-3-.5-3.8,1.4-1.4,3.3-1.4,3.3c0,0-8.1-24.8-.4-36.4,4.4-6.7-1.5-2.4-1.5-2.4l-9.5,9.1s-.9-9.6,11.2-13.4c9.7-3,14.6-2.5,21.4-15.2l-.8,7.3s8.3-3.5,7.8-10.8c0,0,2.9,12.6-23.1,23.4,0,0-5.6,3-6.4,14.5,0,0-.2,10.2,6.6,19.3Z"/>
    <path class="cls-4" d="M153.1,192.2s-9.2-3.7-7.5,5.7c1.7,9.4,3.6,4.4,3.6,4.4,0,0,3.7-7.2,9.4-5.6,0,0,3.4.4-5.5-4.5Z"/>
    <path class="cls-1" d="M159.3,197.2s-4.7-3.8-10.6,2.6c0,0-1.1,2.2-3.7-.6,0,0,1.9,11.4,4.4,6.2,2.4-5.3,7.4-8.9,10-8.1Z"/>
  </g>
  <g>
    <path class="cls-5" d="M201,194.6c0-4.4,2.7-7.1,6.3-7.1s3.2.9,4,1.7l-1,1.1c-.7-.7-1.6-1.3-3-1.3-2.8,0-4.5,2.1-4.5,5.5s1.6,5.6,4.6,5.6,1.9-.3,2.5-.8v-3.6h-2.9v-1.4h4.5v5.8c-.9.9-2.4,1.6-4.2,1.6-3.6,0-6.2-2.6-6.2-7.1Z"/>
    <path class="cls-5" d="M214.6,191.3h1.4v1.8h.2c.7-1.3,1.7-2.1,2.9-2.1s.8,0,1.1.2l-.3,1.5c-.4-.1-.6-.2-1-.2-.9,0-1.9.6-2.6,2.3v6.5h-1.7v-10.2Z"/>
    <path class="cls-5" d="M220.7,198.8c0-2.2,1.9-3.3,6.2-3.8,0-1.3-.4-2.6-2.1-2.6s-2.2.6-3,1.1l-.7-1.2c.9-.6,2.4-1.3,4-1.3,2.5,0,3.5,1.6,3.5,4.2v6.2h-1.4v-1.2h-.2c-1,.8-2.1,1.5-3.4,1.5s-3-1.1-3-2.9ZM226.9,199v-2.8c-3.4.4-4.6,1.2-4.6,2.5s.8,1.6,1.8,1.6,1.8-.5,2.8-1.3Z"/>
    <path class="cls-5" d="M231.8,191.3h1.4v1.2h.2c.9-.8,2.1-1.4,3.2-1.4,2.6,0,4,2,4,5.2s-2.1,5.5-4.4,5.5-1.9-.4-2.8-1.2v1.8s0,3.4,0,3.4h-1.7v-14.4ZM239,196.2c0-2.2-.8-3.7-2.7-3.7s-1.7.5-2.7,1.4v5.3c.9.8,1.8,1.1,2.5,1.1,1.7,0,2.9-1.5,2.9-4Z"/>
    <path class="cls-5" d="M243.4,186.6h1.7v6.2c.9-.9,1.9-1.7,3.3-1.7,2.1,0,3.1,1.4,3.1,4v6.4h-1.7v-6.2c0-1.9-.6-2.7-1.9-2.7s-1.8.5-2.8,1.6v7.4h-1.7v-14.9Z"/>
    <path class="cls-5" d="M254.4,188.1c0-.7.5-1.1,1.2-1.1s1.2.4,1.2,1.1-.5,1.1-1.2,1.1-1.2-.5-1.2-1.1ZM254.7,191.3h1.7v10.2h-1.7v-10.2Z"/>
    <path class="cls-5" d="M259.1,196.4c0-3.4,2.3-5.3,4.9-5.3s2.3.5,3,1.2l-.9,1.1c-.6-.5-1.2-.9-2-.9-1.8,0-3.2,1.6-3.2,3.9s1.3,3.9,3.1,3.9,1.8-.5,2.4-1l.7,1.2c-.9.8-2.1,1.3-3.3,1.3-2.7,0-4.8-2-4.8-5.3Z"/>
    <path class="cls-5" d="M273.7,187.8h3.4c4.2,0,6.5,2.5,6.5,6.8s-2.3,6.9-6.4,6.9h-3.5v-13.7ZM277,200c3.2,0,4.8-2,4.8-5.5s-1.6-5.4-4.8-5.4h-1.6v10.8h1.6Z"/>
    <path class="cls-5" d="M285.7,196.4c0-3.3,2.2-5.3,4.6-5.3s4.1,1.9,4.1,4.8,0,.7,0,1h-6.8c.1,2.2,1.4,3.5,3.4,3.5s1.8-.3,2.5-.8l.6,1.1c-.9.6-2,1.1-3.4,1.1-2.7,0-4.9-2-4.9-5.3ZM292.8,195.6c0-2-.9-3.1-2.5-3.1s-2.7,1.1-2.9,3.1h5.4Z"/>
    <path class="cls-5" d="M295.7,200.3l.8-1.1c.9.7,1.8,1.2,3,1.2s2-.7,2-1.6-1.2-1.5-2.3-1.9c-1.4-.5-3-1.2-3-2.9s1.3-2.9,3.5-2.9,2.4.5,3.2,1.1l-.8,1.1c-.7-.5-1.4-.9-2.3-.9-1.3,0-1.9.7-1.9,1.5s1.1,1.3,2.3,1.8c1.5.6,3.1,1.1,3.1,3.1s-1.3,3-3.7,3-2.8-.6-3.8-1.4Z"/>
    <path class="cls-5" d="M305.2,188.1c0-.7.5-1.1,1.2-1.1s1.2.4,1.2,1.1-.5,1.1-1.2,1.1-1.2-.5-1.2-1.1ZM305.6,191.3h1.7v10.2h-1.7v-10.2Z"/>
    <path class="cls-5" d="M309.9,203.4c0-.9.6-1.7,1.5-2.3h0c-.5-.4-.9-1-.9-1.7s.6-1.5,1.1-1.9h0c-.7-.6-1.3-1.6-1.3-2.8,0-2.2,1.8-3.6,3.8-3.6s1.1.1,1.4.3h3.5v1.3h-2.1c.5.5.8,1.2.8,2.1,0,2.2-1.6,3.5-3.7,3.5s-1.1-.1-1.5-.3c-.4.3-.6.6-.6,1.2s.4,1.1,1.8,1.1h2c2.4,0,3.5.7,3.5,2.4s-2,3.5-5.1,3.5-4.2-1-4.2-2.7ZM317.6,202.9c0-.9-.7-1.3-2-1.3h-1.8c-.4,0-.9,0-1.3-.2-.7.5-1,1.1-1,1.7,0,1.1,1.1,1.8,2.9,1.8s3.2-1,3.2-2.1ZM316.3,194.7c0-1.5-1-2.4-2.2-2.4s-2.2.9-2.2,2.4,1,2.4,2.2,2.4,2.2-.9,2.2-2.4Z"/>
    <path class="cls-5" d="M321.2,191.3h1.4v1.5h.2c1-1,2-1.7,3.4-1.7,2.1,0,3.1,1.4,3.1,4v6.4h-1.7v-6.2c0-1.9-.6-2.7-1.9-2.7s-1.8.5-2.8,1.6v7.4h-1.7v-10.2Z"/>
  </g>
</svg>